<?xml version="1.0" encoding="utf-8" standalone="no"?>
<!DOCTYPE svg PUBLIC "-//W3C//DTD SVG 1.1//EN"
  "http://www.w3.org/Graphics/SVG/1.1/DTD/svg11.dtd">
<!-- Created with matplotlib (http://matplotlib.org/) -->
<svg height="576pt" version="1.1" viewBox="0 0 432 576" width="432pt" xmlns="http://www.w3.org/2000/svg" xmlns:xlink="http://www.w3.org/1999/xlink">
 <defs>
  <style type="text/css">
*{stroke-linecap:butt;stroke-linejoin:round;stroke-miterlimit:100000;}
  </style>
 </defs>
 <g id="figure_1">
  <g id="patch_1">
   <path d="M 0 576 
L 432 576 
L 432 0 
L 0 0 
z
" style="fill:#ffffff;"/>
  </g>
  <g id="axes_1">
   <g id="patch_2">
    <path d="M 109.8 504 
L 333 504 
L 333 57.6 
L 109.8 57.6 
z
" style="fill:#ffffff;"/>
   </g>
   <g id="line2d_1">
    <path clip-path="url(#p2901442788)" d="M 109.8 358.74144 
L 333 358.74144 
" style="fill:none;stroke:#191970;stroke-linecap:round;stroke-width:0.5;"/>
   </g>
   <g id="line2d_2">
    <path clip-path="url(#p2901442788)" d="M 109.8 301.69152 
L 333 301.69152 
" style="fill:none;stroke:#008000;stroke-linecap:round;stroke-width:0.5;"/>
   </g>
   <g id="line2d_3">
    <path clip-path="url(#p2901442788)" d="M 109.8 245.088 
L 333 245.088 
" style="fill:none;stroke:#90ee90;stroke-linecap:round;stroke-width:0.5;"/>
   </g>
   <g id="line2d_4">
    <path clip-path="url(#p2901442788)" d="M 109.8 154.0224 
L 333 154.0224 
" style="fill:none;stroke:#f0e68c;stroke-linecap:round;stroke-width:0.5;"/>
   </g>
   <g id="line2d_5">
    <path clip-path="url(#p2901442788)" d="M 109.8 194.46624 
L 333 194.46624 
" style="fill:none;stroke:#cd853f;stroke-linecap:round;stroke-width:0.5;"/>
   </g>
   <g id="matplotlib.axis_1">
    <g id="xtick_1">
     <g id="line2d_6">
      <path clip-path="url(#p2901442788)" d="M 109.8 504 
L 109.8 57.6 
" style="fill:none;stroke:#cccccc;stroke-linecap:round;stroke-width:0.8;"/>
     </g>
     <g id="line2d_7">
      <defs>
       <path d="M 0 0 
L 0 0 
" id="me611967c54" style="stroke:#262626;stroke-width:0.8;"/>
      </defs>
      <g>
       <use style="fill:#262626;stroke:#262626;stroke-width:0.8;" x="109.8" xlink:href="#me611967c54" y="504.0"/>
      </g>
     </g>
     <g id="line2d_8">
      <g>
       <use style="fill:#262626;stroke:#262626;stroke-width:0.8;" x="109.8" xlink:href="#me611967c54" y="57.6"/>
      </g>
     </g>
     <g id="text_1">
      <!-- 0 -->
      <defs>
       <path d="M 3.125 29.296875 
Q 3.90625 50 6.4375 56.046875 
Q 8.984375 62.109375 13.671875 66.015625 
Q 18.359375 69.921875 25.1875 69.921875 
Q 32.03125 69.921875 37.109375 64.25 
Q 42.1875 58.59375 43.75 50 
Q 45.3125 41.40625 44.71875 30.265625 
Q 44.140625 19.140625 40.8125 12.109375 
Q 37.5 5.078125 30.859375 2.34375 
Q 24.21875 -0.390625 17.578125 2.921875 
Q 10.9375 6.25 8.203125 11.71875 
Q 5.46875 17.1875 4.296875 23.234375 
Q 3.125 29.296875 3.90625 50 
M 12.890625 52.734375 
Q 10.546875 31.25 12.5 22.84375 
Q 14.453125 14.453125 18.9375 10.9375 
Q 23.4375 7.421875 28.125 9.5625 
Q 32.8125 11.71875 34.953125 18.15625 
Q 37.109375 24.609375 37.109375 32.21875 
Q 37.109375 39.84375 36.515625 46.09375 
Q 35.9375 52.34375 33 57.421875 
Q 30.078125 62.5 25.1875 62.6875 
Q 20.3125 62.890625 16.59375 57.8125 
Q 12.890625 52.734375 10.546875 31.25 
" id="SimHei-30"/>
      </defs>
      <g style="fill:#262626;" transform="translate(107.8 515.1)scale(0.08 -0.08)">
       <use xlink:href="#SimHei-30"/>
      </g>
     </g>
    </g>
    <g id="xtick_2">
     <g id="line2d_9">
      <path clip-path="url(#p2901442788)" d="M 154.44 504 
L 154.44 57.6 
" style="fill:none;stroke:#cccccc;stroke-linecap:round;stroke-width:0.8;"/>
     </g>
     <g id="line2d_10">
      <g>
       <use style="fill:#262626;stroke:#262626;stroke-width:0.8;" x="154.44" xlink:href="#me611967c54" y="504.0"/>
      </g>
     </g>
     <g id="line2d_11">
      <g>
       <use style="fill:#262626;stroke:#262626;stroke-width:0.8;" x="154.44" xlink:href="#me611967c54" y="57.6"/>
      </g>
     </g>
     <g id="text_2">
      <!-- 20 -->
      <defs>
       <path d="M 4.6875 3.90625 
Q 5.078125 9.765625 10.15625 14.453125 
Q 15.234375 19.140625 23.046875 29.09375 
Q 30.859375 39.0625 33.203125 44.53125 
Q 35.546875 50 34.953125 53.90625 
Q 34.375 57.8125 31.25 60.34375 
Q 28.125 62.890625 24.015625 62.5 
Q 19.921875 62.109375 16.203125 59.375 
Q 12.5 56.640625 10.546875 51.171875 
L 3.125 52.34375 
Q 6.25 61.328125 11.125 65.421875 
Q 16.015625 69.53125 22.65625 69.921875 
Q 26.5625 70.3125 29.6875 69.71875 
Q 32.8125 69.140625 36.125 66.984375 
Q 39.453125 64.84375 41.59375 60.546875 
Q 43.75 56.25 43.15625 50.1875 
Q 42.578125 44.140625 37.109375 35.734375 
Q 31.640625 27.34375 16.015625 9.375 
L 44.140625 9.375 
L 44.140625 2.34375 
L 4.6875 2.34375 
z
" id="SimHei-32"/>
      </defs>
      <g style="fill:#262626;" transform="translate(150.44 515.1)scale(0.08 -0.08)">
       <use xlink:href="#SimHei-32"/>
       <use x="50.0" xlink:href="#SimHei-30"/>
      </g>
     </g>
    </g>
    <g id="xtick_3">
     <g id="line2d_12">
      <path clip-path="url(#p2901442788)" d="M 199.08 504 
L 199.08 57.6 
" style="fill:none;stroke:#cccccc;stroke-linecap:round;stroke-width:0.8;"/>
     </g>
     <g id="line2d_13">
      <g>
       <use style="fill:#262626;stroke:#262626;stroke-width:0.8;" x="199.08" xlink:href="#me611967c54" y="504.0"/>
      </g>
     </g>
     <g id="line2d_14">
      <g>
       <use style="fill:#262626;stroke:#262626;stroke-width:0.8;" x="199.08" xlink:href="#me611967c54" y="57.6"/>
      </g>
     </g>
     <g id="text_3">
      <!-- 40 -->
      <defs>
       <path d="M 31.25 17.1875 
L 1.171875 17.1875 
L 1.171875 23.828125 
L 32.8125 69.53125 
L 38.671875 69.53125 
L 38.671875 23.828125 
L 48.046875 23.828125 
L 48.046875 17.1875 
L 38.671875 17.1875 
L 38.671875 2.34375 
L 31.25 2.34375 
z
M 31.25 23.828125 
L 31.25 54.6875 
L 9.375 23.828125 
z
" id="SimHei-34"/>
      </defs>
      <g style="fill:#262626;" transform="translate(195.08 515.1)scale(0.08 -0.08)">
       <use xlink:href="#SimHei-34"/>
       <use x="50.0" xlink:href="#SimHei-30"/>
      </g>
     </g>
    </g>
    <g id="xtick_4">
     <g id="line2d_15">
      <path clip-path="url(#p2901442788)" d="M 243.72 504 
L 243.72 57.6 
" style="fill:none;stroke:#cccccc;stroke-linecap:round;stroke-width:0.8;"/>
     </g>
     <g id="line2d_16">
      <g>
       <use style="fill:#262626;stroke:#262626;stroke-width:0.8;" x="243.72" xlink:href="#me611967c54" y="504.0"/>
      </g>
     </g>
     <g id="line2d_17">
      <g>
       <use style="fill:#262626;stroke:#262626;stroke-width:0.8;" x="243.72" xlink:href="#me611967c54" y="57.6"/>
      </g>
     </g>
     <g id="text_4">
      <!-- 60 -->
      <defs>
       <path d="M 3.515625 19.53125 
Q 4.296875 30.859375 6.046875 34.765625 
Q 7.8125 38.671875 11.328125 44.53125 
L 27.34375 69.53125 
L 36.328125 69.53125 
L 19.921875 43.75 
Q 30.46875 46.484375 36.71875 42.96875 
Q 42.96875 39.453125 45.109375 34.953125 
Q 47.265625 30.46875 47.453125 25.1875 
Q 47.65625 19.921875 45.890625 14.84375 
Q 44.140625 9.765625 39.640625 5.65625 
Q 35.15625 1.5625 27.140625 1.171875 
Q 19.140625 0.78125 13.46875 4.09375 
Q 7.8125 7.421875 5.65625 13.46875 
Q 3.515625 19.53125 4.296875 30.859375 
M 12.5 16.015625 
Q 19.53125 8.59375 25.390625 8.203125 
Q 31.25 7.8125 35.15625 12.109375 
Q 39.0625 16.40625 39.0625 24.609375 
Q 39.0625 32.8125 34.171875 35.9375 
Q 29.296875 39.0625 23.234375 38.28125 
Q 17.1875 37.5 14.453125 32.421875 
Q 11.71875 27.34375 12.109375 21.671875 
Q 12.5 16.015625 19.53125 8.59375 
" id="SimHei-36"/>
      </defs>
      <g style="fill:#262626;" transform="translate(239.72 515.1)scale(0.08 -0.08)">
       <use xlink:href="#SimHei-36"/>
       <use x="50.0" xlink:href="#SimHei-30"/>
      </g>
     </g>
    </g>
    <g id="xtick_5">
     <g id="line2d_18">
      <path clip-path="url(#p2901442788)" d="M 288.36 504 
L 288.36 57.6 
" style="fill:none;stroke:#cccccc;stroke-linecap:round;stroke-width:0.8;"/>
     </g>
     <g id="line2d_19">
      <g>
       <use style="fill:#262626;stroke:#262626;stroke-width:0.8;" x="288.36" xlink:href="#me611967c54" y="504.0"/>
      </g>
     </g>
     <g id="line2d_20">
      <g>
       <use style="fill:#262626;stroke:#262626;stroke-width:0.8;" x="288.36" xlink:href="#me611967c54" y="57.6"/>
      </g>
     </g>
     <g id="text_5">
      <!-- 80 -->
      <defs>
       <path d="M 2.734375 16.796875 
Q 2.734375 26.171875 5.078125 30.65625 
Q 7.421875 35.15625 12.890625 37.890625 
Q 8.203125 40.625 6.640625 43.9375 
Q 5.078125 47.265625 4.875 51.5625 
Q 4.6875 55.859375 6.046875 58.984375 
Q 7.421875 62.109375 10.15625 64.84375 
Q 12.890625 67.578125 16.203125 68.546875 
Q 19.53125 69.53125 23.4375 69.53125 
Q 27.34375 69.53125 30.46875 68.75 
Q 33.59375 67.96875 37.109375 65.421875 
Q 40.625 62.890625 42.1875 58.203125 
Q 43.75 53.515625 41.984375 47.265625 
Q 40.234375 41.015625 32.8125 37.5 
Q 39.453125 35.546875 42.1875 31.4375 
Q 44.921875 27.34375 44.921875 21.484375 
Q 44.921875 15.625 43.15625 12.109375 
Q 41.40625 8.59375 39.25 6.25 
Q 37.109375 3.90625 33.390625 2.53125 
Q 29.6875 1.171875 24.015625 1.171875 
Q 18.359375 1.171875 14.25 2.53125 
Q 10.15625 3.90625 7.421875 6.640625 
Q 4.6875 9.375 3.703125 13.078125 
Q 2.734375 16.796875 2.734375 26.171875 
M 10.9375 26.5625 
Q 10.546875 17.1875 12.296875 13.671875 
Q 14.0625 10.15625 18.75 9.171875 
Q 23.4375 8.203125 28.515625 9.375 
Q 33.59375 10.546875 35.546875 14.84375 
Q 37.5 19.140625 36.90625 23.4375 
Q 36.328125 27.734375 32.03125 30.65625 
Q 27.734375 33.59375 22.65625 33.203125 
Q 17.578125 32.8125 14.25 29.6875 
Q 10.9375 26.5625 10.546875 17.1875 
M 12.109375 56.25 
Q 12.109375 48.4375 14.84375 44.921875 
Q 17.578125 41.40625 23.4375 41.40625 
Q 29.296875 41.40625 32.21875 44.921875 
Q 35.15625 48.4375 34.953125 53.3125 
Q 34.765625 58.203125 31.4375 60.546875 
Q 28.125 62.890625 22.453125 62.5 
Q 16.796875 62.109375 14.453125 59.171875 
Q 12.109375 56.25 12.109375 48.4375 
" id="SimHei-38"/>
      </defs>
      <g style="fill:#262626;" transform="translate(284.36 515.1)scale(0.08 -0.08)">
       <use xlink:href="#SimHei-38"/>
       <use x="50.0" xlink:href="#SimHei-30"/>
      </g>
     </g>
    </g>
    <g id="xtick_6">
     <g id="line2d_21">
      <path clip-path="url(#p2901442788)" d="M 333 504 
L 333 57.6 
" style="fill:none;stroke:#cccccc;stroke-linecap:round;stroke-width:0.8;"/>
     </g>
     <g id="line2d_22">
      <g>
       <use style="fill:#262626;stroke:#262626;stroke-width:0.8;" x="333.0" xlink:href="#me611967c54" y="504.0"/>
      </g>
     </g>
     <g id="line2d_23">
      <g>
       <use style="fill:#262626;stroke:#262626;stroke-width:0.8;" x="333.0" xlink:href="#me611967c54" y="57.6"/>
      </g>
     </g>
     <g id="text_6">
      <!-- 100 -->
      <defs>
       <path d="M 21.875 56.25 
Q 16.796875 51.171875 8.984375 46.484375 
L 8.984375 53.90625 
Q 18.75 60.546875 25 69.53125 
L 29.6875 69.53125 
L 29.6875 2.34375 
L 21.875 2.34375 
z
" id="SimHei-31"/>
      </defs>
      <g style="fill:#262626;" transform="translate(327.0 515.1)scale(0.08 -0.08)">
       <use xlink:href="#SimHei-31"/>
       <use x="50.0" xlink:href="#SimHei-30"/>
       <use x="100.0" xlink:href="#SimHei-30"/>
      </g>
     </g>
    </g>
    <g id="text_7">
     <!-- Pressure_Eaton(MPa) -->
     <defs>
      <path d="M 46.09375 48.4375 
Q 46.09375 39.0625 40.625 33.59375 
Q 35.15625 28.125 25.390625 28.125 
L 14.0625 28.125 
L 14.0625 1.953125 
L 5.078125 1.953125 
L 5.078125 68.75 
L 25.390625 68.75 
Q 35.15625 68.75 40.625 63.28125 
Q 46.09375 57.8125 46.09375 48.4375 
M 37.109375 48.4375 
Q 37.109375 55.859375 33.59375 58.59375 
Q 30.078125 61.328125 23.046875 61.328125 
L 14.0625 61.328125 
L 14.0625 35.546875 
L 23.046875 35.546875 
Q 30.078125 35.546875 33.59375 38.28125 
Q 37.109375 41.015625 37.109375 48.4375 
" id="SimHei-50"/>
      <path d="M 45.3125 1.953125 
L 5.46875 1.953125 
L 5.46875 68.75 
L 43.359375 68.75 
L 43.359375 61.328125 
L 14.453125 61.328125 
L 14.453125 40.625 
L 41.015625 40.625 
L 41.015625 33.203125 
L 14.453125 33.203125 
L 14.453125 9.375 
L 45.3125 9.375 
z
" id="SimHei-45"/>
      <path d="M 44.53125 16.796875 
Q 43.75 9.765625 38.28125 5.46875 
Q 32.8125 1.171875 25.390625 1.171875 
Q 16.015625 1.171875 9.953125 7.21875 
Q 3.90625 13.28125 3.90625 23.828125 
Q 3.90625 34.375 9.953125 40.421875 
Q 16.015625 46.484375 25.390625 46.484375 
Q 33.59375 46.484375 38.859375 41.203125 
Q 44.140625 35.9375 44.140625 23.828125 
L 12.5 23.828125 
Q 12.5 15.234375 16.203125 11.71875 
Q 19.921875 8.203125 25.390625 8.203125 
Q 29.6875 8.203125 32.421875 10.34375 
Q 35.15625 12.5 35.9375 16.796875 
z
M 35.15625 30.078125 
Q 34.375 35.546875 31.640625 37.6875 
Q 28.90625 39.84375 24.609375 39.84375 
Q 20.703125 39.84375 17.578125 37.6875 
Q 14.453125 35.546875 12.890625 30.078125 
z
" id="SimHei-65"/>
      <path d="M 44.921875 1.953125 
L 35.546875 1.953125 
Q 34.765625 2.734375 34.375 4.09375 
Q 33.984375 5.46875 33.984375 7.421875 
Q 31.25 4.296875 27.34375 2.734375 
Q 23.4375 1.171875 19.140625 1.171875 
Q 12.890625 1.171875 8.59375 4.296875 
Q 4.296875 7.421875 4.296875 13.28125 
Q 4.296875 19.140625 8.203125 22.65625 
Q 12.109375 26.171875 20.3125 27.34375 
Q 25.78125 28.125 29.875 29.296875 
Q 33.984375 30.46875 33.984375 32.421875 
Q 33.984375 34.765625 32.21875 37.109375 
Q 30.46875 39.453125 24.609375 39.453125 
Q 19.921875 39.453125 17.765625 37.6875 
Q 15.625 35.9375 14.84375 32.8125 
L 6.25 32.8125 
Q 7.03125 39.0625 11.90625 42.765625 
Q 16.796875 46.484375 24.609375 46.484375 
Q 33.203125 46.484375 37.5 42.578125 
Q 41.796875 38.671875 41.796875 31.640625 
L 41.796875 10.15625 
Q 41.796875 7.8125 42.578125 5.859375 
Q 43.359375 3.90625 44.921875 1.953125 
M 33.984375 16.40625 
L 33.984375 24.21875 
Q 31.640625 23.4375 29.484375 22.84375 
Q 27.34375 22.265625 22.265625 21.484375 
Q 16.40625 20.703125 14.640625 18.75 
Q 12.890625 16.796875 12.890625 14.0625 
Q 12.890625 11.71875 14.640625 9.953125 
Q 16.40625 8.203125 19.921875 8.203125 
Q 23.4375 8.203125 27.53125 10.15625 
Q 31.640625 12.109375 33.984375 16.40625 
" id="SimHei-61"/>
      <path d="M 42.96875 3.125 
Q 41.015625 2.34375 38.46875 1.75 
Q 35.9375 1.171875 31.640625 1.171875 
Q 24.609375 1.171875 20.3125 5.078125 
Q 16.015625 8.984375 16.015625 16.015625 
L 16.015625 39.453125 
L 2.734375 39.453125 
L 2.734375 45.703125 
L 16.015625 45.703125 
L 16.015625 60.9375 
L 23.828125 60.9375 
L 23.828125 45.703125 
L 39.84375 45.703125 
L 39.84375 39.453125 
L 23.828125 39.453125 
L 23.828125 15.625 
Q 23.828125 12.5 25.390625 10.34375 
Q 26.953125 8.203125 31.25 8.203125 
Q 35.546875 8.203125 38.28125 8.984375 
Q 41.015625 9.765625 42.96875 10.9375 
z
" id="SimHei-74"/>
      <path d="M 43.75 1.953125 
L 35.9375 1.953125 
L 35.9375 10.15625 
Q 32.8125 5.859375 29.09375 3.515625 
Q 25.390625 1.171875 19.53125 1.171875 
Q 12.5 1.171875 8.984375 5.078125 
Q 5.46875 8.984375 5.46875 14.84375 
L 5.46875 45.703125 
L 13.28125 45.703125 
L 13.28125 17.578125 
Q 13.28125 12.890625 15.625 10.15625 
Q 17.96875 7.421875 21.875 7.421875 
Q 26.953125 7.421875 31.4375 12.6875 
Q 35.9375 17.96875 35.9375 25.78125 
L 35.9375 45.703125 
L 43.75 45.703125 
z
" id="SimHei-75"/>
      <path d="M 39.0625 37.890625 
Q 31.640625 39.0625 26.5625 35.734375 
Q 21.484375 32.421875 17.96875 24.21875 
L 17.96875 1.953125 
L 10.15625 1.953125 
L 10.15625 45.703125 
L 17.96875 45.703125 
L 17.96875 34.375 
Q 21.484375 40.625 26.75 43.546875 
Q 32.03125 46.484375 39.0625 46.484375 
z
" id="SimHei-72"/>
      <path d="M 42.96875 14.0625 
Q 42.96875 7.8125 38.078125 4.484375 
Q 33.203125 1.171875 25.78125 1.171875 
Q 16.40625 1.171875 11.328125 4.875 
Q 6.25 8.59375 6.25 15.625 
L 14.0625 15.625 
Q 14.0625 10.9375 17.375 9.375 
Q 20.703125 7.8125 25.390625 7.8125 
Q 30.078125 7.8125 32.421875 9.5625 
Q 34.765625 11.328125 34.765625 14.0625 
Q 34.765625 16.015625 32.8125 17.96875 
Q 30.859375 19.921875 23.046875 21.09375 
Q 14.0625 22.265625 10.734375 25.578125 
Q 7.421875 28.90625 7.421875 34.375 
Q 7.421875 39.0625 11.90625 42.765625 
Q 16.40625 46.484375 25 46.484375 
Q 32.8125 46.484375 37.296875 42.96875 
Q 41.796875 39.453125 41.796875 33.59375 
L 33.984375 33.59375 
Q 33.984375 37.109375 31.4375 38.46875 
Q 28.90625 39.84375 25 39.84375 
Q 19.921875 39.84375 17.765625 38.078125 
Q 15.625 36.328125 15.625 33.984375 
Q 15.625 31.25 17.578125 29.6875 
Q 19.53125 28.125 25.78125 27.34375 
Q 35.9375 25.78125 39.453125 22.453125 
Q 42.96875 19.140625 42.96875 14.0625 
" id="SimHei-73"/>
      <path d="M 26.171875 35.15625 
Q 26.171875 22.265625 21.28125 12.109375 
Q 16.40625 1.953125 6.640625 -7.421875 
L 2.34375 -3.125 
Q 11.328125 5.078125 15.8125 14.25 
Q 20.3125 23.4375 20.3125 35.15625 
Q 20.3125 46.875 15.8125 56.046875 
Q 11.328125 65.234375 2.34375 73.828125 
L 6.640625 78.125 
Q 16.40625 68.359375 21.28125 58.203125 
Q 26.171875 48.046875 26.171875 35.15625 
" id="SimHei-29"/>
      <path d="M 49.21875 -13.28125 
L 0 -13.28125 
L 0 -8.59375 
L 49.21875 -8.59375 
z
" id="SimHei-5f"/>
      <path d="M 45.703125 1.953125 
L 37.890625 1.953125 
L 37.890625 49.609375 
L 37.109375 49.609375 
L 27.734375 1.953125 
L 21.484375 1.953125 
L 12.109375 49.609375 
L 11.328125 49.609375 
L 11.328125 1.953125 
L 3.515625 1.953125 
L 3.515625 68.75 
L 15.625 68.75 
L 24.21875 24.609375 
L 25 24.609375 
L 33.59375 68.75 
L 45.703125 68.75 
z
" id="SimHei-4d"/>
      <path d="M 43.75 1.953125 
L 35.9375 1.953125 
L 35.9375 30.078125 
Q 35.9375 34.765625 33.59375 37.5 
Q 31.25 40.234375 27.34375 40.234375 
Q 22.265625 40.234375 17.765625 34.953125 
Q 13.28125 29.6875 13.28125 21.875 
L 13.28125 1.953125 
L 5.46875 1.953125 
L 5.46875 45.703125 
L 13.28125 45.703125 
L 13.28125 37.5 
Q 16.40625 41.796875 20.109375 44.140625 
Q 23.828125 46.484375 29.6875 46.484375 
Q 36.71875 46.484375 40.234375 42.578125 
Q 43.75 38.671875 43.75 32.8125 
z
" id="SimHei-6e"/>
      <path d="M 46.484375 -3.125 
L 42.1875 -7.421875 
Q 32.421875 1.953125 27.53125 12.109375 
Q 22.65625 22.265625 22.65625 35.15625 
Q 22.65625 48.046875 27.53125 58.203125 
Q 32.421875 68.359375 42.1875 78.125 
L 46.484375 73.828125 
Q 37.5 65.234375 33 56.046875 
Q 28.515625 46.875 28.515625 35.15625 
Q 28.515625 23.4375 33 14.25 
Q 37.5 5.078125 46.484375 -3.125 
" id="SimHei-28"/>
      <path d="M 45.703125 23.828125 
Q 45.703125 13.671875 39.453125 7.421875 
Q 33.203125 1.171875 24.609375 1.171875 
Q 16.015625 1.171875 9.765625 7.421875 
Q 3.515625 13.671875 3.515625 23.828125 
Q 3.515625 33.984375 9.765625 40.234375 
Q 16.015625 46.484375 24.609375 46.484375 
Q 33.203125 46.484375 39.453125 40.234375 
Q 45.703125 33.984375 45.703125 23.828125 
M 37.109375 23.828125 
Q 37.109375 31.640625 33.203125 35.546875 
Q 29.296875 39.453125 24.609375 39.453125 
Q 19.921875 39.453125 16.015625 35.546875 
Q 12.109375 31.640625 12.109375 23.828125 
Q 12.109375 16.015625 16.015625 12.109375 
Q 19.921875 8.203125 24.609375 8.203125 
Q 29.296875 8.203125 33.203125 12.109375 
Q 37.109375 16.015625 37.109375 23.828125 
" id="SimHei-6f"/>
     </defs>
     <g style="fill:#262626;" transform="translate(179.6 527.975)scale(0.088 -0.088)">
      <use xlink:href="#SimHei-50"/>
      <use x="50.0" xlink:href="#SimHei-72"/>
      <use x="100.0" xlink:href="#SimHei-65"/>
      <use x="150.0" xlink:href="#SimHei-73"/>
      <use x="200.0" xlink:href="#SimHei-73"/>
      <use x="250.0" xlink:href="#SimHei-75"/>
      <use x="300.0" xlink:href="#SimHei-72"/>
      <use x="350.0" xlink:href="#SimHei-65"/>
      <use x="400.0" xlink:href="#SimHei-5f"/>
      <use x="450.0" xlink:href="#SimHei-45"/>
      <use x="500.0" xlink:href="#SimHei-61"/>
      <use x="550.0" xlink:href="#SimHei-74"/>
      <use x="600.0" xlink:href="#SimHei-6f"/>
      <use x="650.0" xlink:href="#SimHei-6e"/>
      <use x="700.0" xlink:href="#SimHei-28"/>
      <use x="750.0" xlink:href="#SimHei-4d"/>
      <use x="800.0" xlink:href="#SimHei-50"/>
      <use x="850.0" xlink:href="#SimHei-61"/>
      <use x="900.0" xlink:href="#SimHei-29"/>
     </g>
    </g>
   </g>
   <g id="matplotlib.axis_2">
    <g id="ytick_1">
     <g id="line2d_24">
      <path clip-path="url(#p2901442788)" d="M 109.8 57.6 
L 333 57.6 
" style="fill:none;stroke:#cccccc;stroke-linecap:round;stroke-width:0.8;"/>
     </g>
     <g id="line2d_25">
      <g>
       <use style="fill:#262626;stroke:#262626;stroke-width:0.8;" x="109.8" xlink:href="#me611967c54" y="57.6"/>
      </g>
     </g>
     <g id="line2d_26">
      <g>
       <use style="fill:#262626;stroke:#262626;stroke-width:0.8;" x="333.0" xlink:href="#me611967c54" y="57.6"/>
      </g>
     </g>
     <g id="text_8">
      <!-- 0 -->
      <g style="fill:#262626;" transform="translate(100.2 59.85)scale(0.08 -0.08)">
       <use xlink:href="#SimHei-30"/>
      </g>
     </g>
    </g>
    <g id="ytick_2">
     <g id="line2d_27">
      <path clip-path="url(#p2901442788)" d="M 109.8 146.88 
L 333 146.88 
" style="fill:none;stroke:#cccccc;stroke-linecap:round;stroke-width:0.8;"/>
     </g>
     <g id="line2d_28">
      <g>
       <use style="fill:#262626;stroke:#262626;stroke-width:0.8;" x="109.8" xlink:href="#me611967c54" y="146.88"/>
      </g>
     </g>
     <g id="line2d_29">
      <g>
       <use style="fill:#262626;stroke:#262626;stroke-width:0.8;" x="333.0" xlink:href="#me611967c54" y="146.88"/>
      </g>
     </g>
     <g id="text_9">
      <!-- 1000 -->
      <g style="fill:#262626;" transform="translate(88.2 149.13)scale(0.08 -0.08)">
       <use xlink:href="#SimHei-31"/>
       <use x="50.0" xlink:href="#SimHei-30"/>
       <use x="100.0" xlink:href="#SimHei-30"/>
       <use x="150.0" xlink:href="#SimHei-30"/>
      </g>
     </g>
    </g>
    <g id="ytick_3">
     <g id="line2d_30">
      <path clip-path="url(#p2901442788)" d="M 109.8 236.16 
L 333 236.16 
" style="fill:none;stroke:#cccccc;stroke-linecap:round;stroke-width:0.8;"/>
     </g>
     <g id="line2d_31">
      <g>
       <use style="fill:#262626;stroke:#262626;stroke-width:0.8;" x="109.8" xlink:href="#me611967c54" y="236.16"/>
      </g>
     </g>
     <g id="line2d_32">
      <g>
       <use style="fill:#262626;stroke:#262626;stroke-width:0.8;" x="333.0" xlink:href="#me611967c54" y="236.16"/>
      </g>
     </g>
     <g id="text_10">
      <!-- 2000 -->
      <g style="fill:#262626;" transform="translate(88.2 238.41)scale(0.08 -0.08)">
       <use xlink:href="#SimHei-32"/>
       <use x="50.0" xlink:href="#SimHei-30"/>
       <use x="100.0" xlink:href="#SimHei-30"/>
       <use x="150.0" xlink:href="#SimHei-30"/>
      </g>
     </g>
    </g>
    <g id="ytick_4">
     <g id="line2d_33">
      <path clip-path="url(#p2901442788)" d="M 109.8 325.44 
L 333 325.44 
" style="fill:none;stroke:#cccccc;stroke-linecap:round;stroke-width:0.8;"/>
     </g>
     <g id="line2d_34">
      <g>
       <use style="fill:#262626;stroke:#262626;stroke-width:0.8;" x="109.8" xlink:href="#me611967c54" y="325.44"/>
      </g>
     </g>
     <g id="line2d_35">
      <g>
       <use style="fill:#262626;stroke:#262626;stroke-width:0.8;" x="333.0" xlink:href="#me611967c54" y="325.44"/>
      </g>
     </g>
     <g id="text_11">
      <!-- 3000 -->
      <defs>
       <path d="M 3.90625 19.140625 
L 10.9375 20.3125 
Q 12.5 15.234375 16.015625 11.90625 
Q 19.53125 8.59375 24.796875 8.78125 
Q 30.078125 8.984375 33.203125 13.078125 
Q 36.328125 17.1875 35.9375 22.453125 
Q 35.546875 27.734375 31.828125 30.65625 
Q 28.125 33.59375 19.921875 34.765625 
L 19.921875 39.84375 
Q 28.125 40.625 31.828125 44.140625 
Q 35.546875 47.65625 35.15625 53.3125 
Q 34.765625 58.984375 30.078125 61.515625 
Q 25.390625 64.0625 20.109375 62.109375 
Q 14.84375 60.15625 11.71875 51.171875 
L 4.6875 52.34375 
Q 7.03125 59.375 11.125 64.0625 
Q 15.234375 68.75 22.265625 69.53125 
Q 29.296875 70.3125 34.5625 67.765625 
Q 39.84375 65.234375 41.984375 59.953125 
Q 44.140625 54.6875 42.578125 48.4375 
Q 41.015625 42.1875 33.59375 37.5 
Q 39.0625 35.15625 41.984375 30.46875 
Q 44.921875 25.78125 43.9375 18.15625 
Q 42.96875 10.546875 37.109375 5.859375 
Q 31.25 1.171875 23.828125 1.359375 
Q 16.40625 1.5625 10.9375 6.046875 
Q 5.46875 10.546875 3.90625 19.140625 
" id="SimHei-33"/>
      </defs>
      <g style="fill:#262626;" transform="translate(88.2 327.69)scale(0.08 -0.08)">
       <use xlink:href="#SimHei-33"/>
       <use x="50.0" xlink:href="#SimHei-30"/>
       <use x="100.0" xlink:href="#SimHei-30"/>
       <use x="150.0" xlink:href="#SimHei-30"/>
      </g>
     </g>
    </g>
    <g id="ytick_5">
     <g id="line2d_36">
      <path clip-path="url(#p2901442788)" d="M 109.8 414.72 
L 333 414.72 
" style="fill:none;stroke:#cccccc;stroke-linecap:round;stroke-width:0.8;"/>
     </g>
     <g id="line2d_37">
      <g>
       <use style="fill:#262626;stroke:#262626;stroke-width:0.8;" x="109.8" xlink:href="#me611967c54" y="414.72"/>
      </g>
     </g>
     <g id="line2d_38">
      <g>
       <use style="fill:#262626;stroke:#262626;stroke-width:0.8;" x="333.0" xlink:href="#me611967c54" y="414.72"/>
      </g>
     </g>
     <g id="text_12">
      <!-- 4000 -->
      <g style="fill:#262626;" transform="translate(88.2 416.97)scale(0.08 -0.08)">
       <use xlink:href="#SimHei-34"/>
       <use x="50.0" xlink:href="#SimHei-30"/>
       <use x="100.0" xlink:href="#SimHei-30"/>
       <use x="150.0" xlink:href="#SimHei-30"/>
      </g>
     </g>
    </g>
    <g id="ytick_6">
     <g id="line2d_39">
      <path clip-path="url(#p2901442788)" d="M 109.8 504 
L 333 504 
" style="fill:none;stroke:#cccccc;stroke-linecap:round;stroke-width:0.8;"/>
     </g>
     <g id="line2d_40">
      <g>
       <use style="fill:#262626;stroke:#262626;stroke-width:0.8;" x="109.8" xlink:href="#me611967c54" y="504.0"/>
      </g>
     </g>
     <g id="line2d_41">
      <g>
       <use style="fill:#262626;stroke:#262626;stroke-width:0.8;" x="333.0" xlink:href="#me611967c54" y="504.0"/>
      </g>
     </g>
     <g id="text_13">
      <!-- 5000 -->
      <defs>
       <path d="M 8.59375 20.703125 
Q 11.328125 10.15625 17.96875 8.984375 
Q 24.609375 7.8125 28.703125 10.34375 
Q 32.8125 12.890625 34.5625 16.984375 
Q 36.328125 21.09375 36.125 26.171875 
Q 35.9375 31.25 33.390625 34.765625 
Q 30.859375 38.28125 26.953125 39.453125 
Q 23.046875 40.625 18.15625 39.453125 
Q 13.28125 38.28125 10.15625 33.984375 
L 3.515625 34.765625 
Q 4.296875 37.109375 10.9375 68.359375 
L 41.796875 68.359375 
L 41.796875 61.328125 
L 16.796875 61.328125 
Q 14.84375 50.78125 12.890625 44.53125 
Q 18.75 47.265625 23.828125 47.0625 
Q 28.90625 46.875 33.59375 44.71875 
Q 38.28125 42.578125 40.421875 38.859375 
Q 42.578125 35.15625 43.546875 31.4375 
Q 44.53125 27.734375 44.328125 23.4375 
Q 44.140625 19.140625 42.578125 14.640625 
Q 41.015625 10.15625 37.890625 7.21875 
Q 34.765625 4.296875 30.265625 2.53125 
Q 25.78125 0.78125 19.921875 1.171875 
Q 14.0625 1.5625 8.78125 5.46875 
Q 3.515625 9.375 1.5625 18.75 
z
" id="SimHei-35"/>
      </defs>
      <g style="fill:#262626;" transform="translate(88.2 506.25)scale(0.08 -0.08)">
       <use xlink:href="#SimHei-35"/>
       <use x="50.0" xlink:href="#SimHei-30"/>
       <use x="100.0" xlink:href="#SimHei-30"/>
       <use x="150.0" xlink:href="#SimHei-30"/>
      </g>
     </g>
    </g>
    <g id="text_14">
     <!-- Depth(m) -->
     <defs>
      <path d="M 47.65625 1.953125 
L 39.84375 1.953125 
L 39.84375 33.59375 
Q 39.84375 35.9375 39.0625 37.5 
Q 38.28125 39.0625 35.9375 39.0625 
Q 33.203125 39.0625 30.859375 36.125 
Q 28.515625 33.203125 28.515625 28.515625 
L 28.515625 1.953125 
L 20.703125 1.953125 
L 20.703125 33.59375 
Q 20.703125 35.9375 19.921875 37.5 
Q 19.140625 39.0625 16.796875 39.0625 
Q 14.0625 39.0625 11.71875 36.125 
Q 9.375 33.203125 9.375 28.515625 
L 9.375 1.953125 
L 1.5625 1.953125 
L 1.5625 45.703125 
L 9.375 45.703125 
L 9.375 39.84375 
Q 11.328125 42.96875 14.0625 44.71875 
Q 16.796875 46.484375 19.921875 46.484375 
Q 23.046875 46.484375 25.1875 44.71875 
Q 27.34375 42.96875 28.125 39.84375 
Q 30.078125 42.96875 32.609375 44.71875 
Q 35.15625 46.484375 38.28125 46.484375 
Q 42.96875 46.484375 45.3125 43.9375 
Q 47.65625 41.40625 47.65625 36.71875 
z
" id="SimHei-6d"/>
      <path d="M 43.75 1.953125 
L 35.9375 1.953125 
L 35.9375 30.078125 
Q 35.9375 34.765625 33.59375 37.5 
Q 31.25 40.234375 27.34375 40.234375 
Q 22.265625 40.234375 17.765625 34.953125 
Q 13.28125 29.6875 13.28125 21.875 
L 13.28125 1.953125 
L 5.46875 1.953125 
L 5.46875 68.75 
L 13.28125 68.75 
L 13.28125 37.5 
Q 16.40625 41.796875 20.109375 44.140625 
Q 23.828125 46.484375 29.6875 46.484375 
Q 36.71875 46.484375 40.234375 42.578125 
Q 43.75 38.671875 43.75 32.8125 
z
" id="SimHei-68"/>
      <path d="M 44.140625 23.828125 
Q 44.140625 12.5 38.671875 6.640625 
Q 33.203125 0.78125 25.390625 0.78125 
Q 21.09375 0.78125 17.96875 2.53125 
Q 14.84375 4.296875 12.5 7.8125 
L 12.5 -12.5 
L 4.6875 -12.5 
L 4.6875 45.703125 
L 12.5 45.703125 
L 12.5 39.84375 
Q 14.84375 43.359375 17.96875 44.921875 
Q 21.09375 46.484375 25.390625 46.484375 
Q 33.203125 46.484375 38.671875 40.8125 
Q 44.140625 35.15625 44.140625 23.828125 
M 35.546875 23.828125 
Q 35.546875 31.25 32.609375 35.34375 
Q 29.6875 39.453125 23.828125 39.453125 
Q 19.140625 39.453125 15.8125 35.34375 
Q 12.5 31.25 12.5 23.828125 
Q 12.5 16.40625 15.8125 12.109375 
Q 19.140625 7.8125 23.828125 7.8125 
Q 29.6875 7.8125 32.609375 12.109375 
Q 35.546875 16.40625 35.546875 23.828125 
" id="SimHei-70"/>
      <path d="M 45.703125 35.15625 
Q 45.703125 17.1875 38.078125 9.5625 
Q 30.46875 1.953125 17.578125 1.953125 
L 4.296875 1.953125 
L 4.296875 68.75 
L 17.578125 68.75 
Q 32.03125 68.75 38.859375 60.9375 
Q 45.703125 53.125 45.703125 35.15625 
M 36.328125 35.15625 
Q 36.328125 49.609375 31.640625 55.46875 
Q 26.953125 61.328125 17.578125 61.328125 
L 13.28125 61.328125 
L 13.28125 9.375 
L 17.578125 9.375 
Q 26.953125 9.375 31.640625 15.03125 
Q 36.328125 20.703125 36.328125 35.15625 
" id="SimHei-44"/>
     </defs>
     <g style="fill:#262626;" transform="translate(82.1 298.4)rotate(-90.0)scale(0.088 -0.088)">
      <use xlink:href="#SimHei-44"/>
      <use x="50.0" xlink:href="#SimHei-65"/>
      <use x="100.0" xlink:href="#SimHei-70"/>
      <use x="150.0" xlink:href="#SimHei-74"/>
      <use x="200.0" xlink:href="#SimHei-68"/>
      <use x="250.0" xlink:href="#SimHei-28"/>
      <use x="300.0" xlink:href="#SimHei-6d"/>
      <use x="350.0" xlink:href="#SimHei-29"/>
     </g>
    </g>
   </g>
   <g id="line2d_42">
    <path clip-path="url(#p2901442788)" d="M 109.8 57.6 
L 109.910537 60.090912 
L 111.938537 67.82256 
L 118.205356 81.768096 
L 125.750737 97.9992 
L 134.172142 115.578432 
L 143.383799 134.29152 
L 153.567303 154.459872 
L 164.366642 175.342464 
L 175.821777 197.001792 
L 188.155313 219.839616 
L 196.550524 235.115424 
L 209.001682 257.828256 
L 220.548015 278.157312 
L 226.396006 288.201312 
L 234.729538 302.736096 
L 253.721326 335.055456 
L 260.748587 346.929696 
L 267.083815 357.634368 
L 283.963962 385.337952 
L 304.751199 419.076864 
L 318.912424 441.780768 
L 327.321522 455.43168 
L 330.216096 460.226016 
L 330.216096 460.226016 
" style="fill:none;stroke:#008000;stroke-linecap:round;stroke-width:0.5;"/>
   </g>
   <g id="line2d_43">
    <path clip-path="url(#p2901442788)" d="M 118.580434 92.6424 
L 118.940368 94.222656 
L 119.861394 98.963424 
L 120.42277 101.150784 
L 120.854572 102.981024 
L 121.545655 106.855776 
L 121.851338 109.123488 
L 122.631716 113.998176 
L 123.437783 117.605088 
L 124.461997 120.908448 
L 125.039022 122.613696 
L 125.69775 124.568928 
L 125.860168 125.917056 
L 126.115434 127.747296 
L 126.411172 129.791808 
L 126.654748 131.74704 
L 127.134079 134.273664 
L 127.337061 135.791424 
L 127.756695 136.844928 
L 128.406852 138.505536 
L 129.09043 140.416128 
L 129.625083 141.88032 
L 129.665393 142.692768 
L 129.45561 143.862336 
L 129.344296 145.014048 
L 129.493561 148.39776 
L 129.752555 149.51376 
L 130.3208 150.879744 
L 133.048557 156.843648 
L 133.052246 157.825728 
L 133.022646 159.584544 
L 133.291625 160.620192 
L 134.260266 163.102176 
L 135.401217 166.03056 
L 136.528937 170.80704 
L 136.637391 172.14624 
L 136.959981 172.94976 
L 138.374795 175.869216 
L 138.906831 176.92272 
L 140.445438 179.538624 
L 140.467616 180.324288 
L 140.424644 182.315232 
L 140.745873 184.038336 
L 141.219007 185.520384 
L 141.897765 186.886368 
L 143.031272 188.636256 
L 144.523488 190.8504 
L 144.511373 191.34144 
L 144.263856 191.823552 
L 143.671735 192.430656 
L 142.289473 193.778784 
L 142.134942 194.269824 
L 142.222268 194.751936 
L 142.594015 195.394752 
L 144.827445 198.376704 
L 146.14159 199.251648 
L 147.310005 200.117664 
L 147.615142 200.599776 
L 147.612743 200.992608 
L 147.374532 201.403296 
L 146.770266 201.947904 
L 144.709736 203.644224 
L 144.425658 204.2424 
L 144.34462 204.974496 
L 144.215648 207.108288 
L 144.172194 208.509984 
L 144.127804 210.036672 
L 143.825378 212.393664 
L 144.125203 213.009696 
L 144.781585 213.79536 
L 146.499586 215.741664 
L 146.863715 216.545184 
L 146.98863 217.36656 
L 147.182626 219.750336 
L 147.701752 221.080608 
L 148.445523 222.473376 
L 149.214523 223.419744 
L 151.004432 225.464256 
L 151.12315 226.02672 
L 151.012389 226.615968 
L 150.335007 228.892608 
L 150.525827 229.937184 
L 150.640872 231.0264 
L 150.701862 233.383392 
L 151.113057 234.24048 
L 152.915234 237.517056 
L 153.217037 238.561632 
L 153.2472 239.516928 
L 153.293136 240.856128 
L 153.600614 241.78464 
L 153.961635 242.963136 
L 153.926877 243.695232 
L 153.800841 245.04336 
L 154.035072 245.57904 
L 154.567706 246.186144 
L 156.840717 248.462784 
L 157.249259 249.444864 
L 157.733916 250.418016 
L 159.043822 252.605376 
L 158.953058 253.105344 
L 158.611781 253.65888 
L 157.808112 254.471328 
L 156.698884 255.640896 
L 156.410703 256.265856 
L 156.390623 256.82832 
L 156.601228 257.444352 
L 157.133822 258.247872 
L 158.446345 259.738848 
L 160.148668 261.73872 
L 160.489409 262.488672 
L 160.54752 263.149344 
L 160.374357 263.92608 
L 160.028786 265.345632 
L 160.128037 266.02416 
L 160.490323 266.836608 
L 162.138845 269.59536 
L 162.858204 270.880992 
L 162.967385 271.55952 
L 162.849074 272.470176 
L 162.821653 273.318336 
L 163.034805 273.943296 
L 163.56594 274.72896 
L 164.547042 276.15744 
L 164.776356 276.934176 
L 164.864233 278.193024 
L 164.819385 279.710784 
L 164.549875 280.433952 
L 163.933711 281.353536 
L 163.252569 282.460608 
L 163.118074 283.103424 
L 163.216331 283.74624 
L 163.606191 284.621184 
L 164.19195 285.97824 
L 164.370769 287.09424 
L 164.651366 288.513792 
L 165.149362 289.852992 
L 165.690185 290.66544 
L 166.883561 291.933216 
L 167.474106 292.754592 
L 167.727859 293.495616 
L 168.36338 296.031168 
L 168.620965 297.0936 
L 168.582795 297.950688 
L 168.452479 299.620224 
L 168.707106 301.1112 
L 169.246222 304.709184 
L 168.92691 305.744832 
L 168.556755 307.110816 
L 168.152925 308.842848 
L 167.225279 311.351616 
L 167.397383 311.931936 
L 167.824037 312.547968 
L 168.629986 313.288992 
L 170.002602 314.226432 
L 171.835614 315.208512 
L 173.794152 316.003104 
L 176.226554 316.7352 
L 179.95785 317.601216 
L 186.99301 319.208256 
L 188.535458 319.788576 
L 189.191087 320.243904 
L 189.377709 320.609952 
L 189.30755 320.958144 
L 188.971148 321.368832 
L 188.198386 321.922368 
L 186.754686 322.663392 
L 184.836104 323.395488 
L 182.249632 324.127584 
L 177.163324 325.279296 
L 173.912692 326.127456 
L 172.681696 326.654208 
L 172.240639 327.055968 
L 172.181828 327.386304 
L 172.365055 327.734496 
L 172.922632 328.234464 
L 174.698009 329.707584 
L 175.146483 330.457536 
L 175.931549 331.859232 
L 176.975188 333.493056 
L 177.148281 334.27872 
L 177.301237 336.885696 
L 177.074436 337.44816 
L 176.571517 338.046336 
L 175.37019 339.046272 
L 173.4529 340.724736 
L 170.970083 343.037088 
L 170.925857 343.47456 
L 171.113252 343.894176 
L 171.617264 344.420928 
L 175.195052 347.617152 
L 176.56453 348.69744 
L 177.758532 349.72416 
L 178.155069 350.34912 
L 178.293681 350.991936 
L 178.646591 354.63456 
L 178.971462 355.241664 
L 179.531401 355.7952 
L 180.524651 356.438016 
L 182.995465 357.687936 
L 184.892402 358.78608 
L 187.568908 360.410976 
L 191.22497 362.35728 
L 191.775552 362.98224 
L 192.634177 364.062528 
L 193.44356 364.580352 
L 194.948192 365.241024 
L 197.811236 366.482016 
L 198.378031 366.964128 
L 198.540076 367.365888 
L 198.466275 367.794432 
L 197.853383 369.660384 
L 197.957472 371.187072 
L 197.642819 371.695968 
L 196.90894 372.392352 
L 195.897069 373.392288 
L 195.705501 373.883328 
L 195.764755 374.347584 
L 196.090368 374.936832 
L 196.929697 376.338528 
L 197.567887 377.784864 
L 198.159061 378.302688 
L 199.180961 378.87408 
L 201.144685 379.6776 
L 204.095003 380.909664 
L 205.039983 381.543552 
L 205.590865 382.17744 
L 206.160992 383.2488 
L 206.743547 384.67728 
L 206.774016 385.373664 
L 206.570267 386.123616 
L 206.019561 387.84672 
L 206.11682 388.42704 
L 206.447055 388.998432 
L 207.131921 389.694816 
L 209.005369 391.480416 
L 209.463676 392.337504 
L 210.098316 393.498144 
L 211.47084 395.560512 
L 211.416115 396.06048 
L 211.116797 396.622944 
L 210.301134 397.57824 
L 209.467476 398.676384 
L 209.025197 399.649536 
L 208.859086 400.488768 
L 208.968195 401.033376 
L 209.30044 401.524416 
L 209.97399 402.08688 
L 211.484202 402.997536 
L 213.05937 404.033184 
L 213.711935 404.72064 
L 214.075041 405.425952 
L 214.995322 407.66688 
L 216.19878 409.220352 
L 217.637617 410.854176 
L 218.756377 411.738048 
L 220.593349 412.862976 
L 222.84607 414.300384 
L 224.575782 415.719936 
L 226.006887 417.121632 
L 226.747613 418.175136 
L 227.862305 419.800032 
L 228.798237 421.112448 
L 228.920457 421.692768 
L 228.809491 422.335584 
L 228.600231 423.442656 
L 228.76243 424.00512 
L 229.26665 424.799712 
L 229.708455 425.630016 
L 229.739521 426.156768 
L 229.538571 426.701376 
L 228.588572 428.656608 
L 228.715382 429.254784 
L 229.20874 430.906464 
L 229.036419 431.433216 
L 228.573699 432.067104 
L 227.121712 433.87056 
L 226.619481 435.102624 
L 226.156746 436.557888 
L 226.254831 437.057856 
L 226.586532 437.53104 
L 227.254959 438.057792 
L 228.46221 438.700608 
L 230.548125 439.53984 
L 233.574809 440.512992 
L 237.59616 441.557568 
L 244.720515 443.37888 
L 246.923826 444.200256 
L 249.164377 445.2984 
L 253.134351 447.494688 
L 254.232098 448.37856 
L 255.63343 449.5392 
L 256.783127 450.128448 
L 258.665736 450.815904 
L 265.146885 453.02112 
L 266.058358 453.628224 
L 266.614179 454.262112 
L 267.071833 455.154912 
L 267.295 456.003072 
L 267.212674 456.529824 
L 266.897773 457.020864 
L 266.202435 457.636896 
L 265.005957 458.6904 
L 264.908654 459.065376 
L 265.037175 459.36 
L 265.037175 459.36 
" style="fill:none;stroke:#0000ff;stroke-linecap:round;stroke-width:0.5;"/>
   </g>
   <g id="line2d_44">
    <path clip-path="url(#p2901442788)" d="M 109.8 57.6 
L 109.909442 60.090912 
L 209.083788 464.609664 
L 209.083788 464.609664 
" style="fill:none;stroke:#008000;stroke-dasharray:6.000000,6.000000;stroke-dashoffset:0.0;stroke-width:1.4;"/>
   </g>
   <g id="patch_3">
    <path d="M 109.8 57.6 
L 333 57.6 
" style="fill:none;stroke:#cccccc;stroke-linecap:square;stroke-linejoin:miter;"/>
   </g>
   <g id="patch_4">
    <path d="M 333 504 
L 333 57.6 
" style="fill:none;stroke:#cccccc;stroke-linecap:square;stroke-linejoin:miter;"/>
   </g>
   <g id="patch_5">
    <path d="M 109.8 504 
L 333 504 
" style="fill:none;stroke:#cccccc;stroke-linecap:square;stroke-linejoin:miter;"/>
   </g>
   <g id="patch_6">
    <path d="M 109.8 504 
L 109.8 57.6 
" style="fill:none;stroke:#cccccc;stroke-linecap:square;stroke-linejoin:miter;"/>
   </g>
   <g id="text_15">
    <!-- T30 -->
    <defs>
     <path d="M 44.53125 61.328125 
L 28.90625 61.328125 
L 28.90625 1.953125 
L 19.921875 1.953125 
L 19.921875 61.328125 
L 4.296875 61.328125 
L 4.296875 68.75 
L 44.53125 68.75 
z
" id="SimHei-54"/>
    </defs>
    <g style="fill:#191970;" transform="translate(288.36 358.74144)scale(0.09 -0.09)">
     <use xlink:href="#SimHei-54"/>
     <use x="50.0" xlink:href="#SimHei-33"/>
     <use x="100.0" xlink:href="#SimHei-30"/>
    </g>
   </g>
   <g id="text_16">
    <!-- T20 -->
    <g style="fill:#008000;" transform="translate(288.36 301.69152)scale(0.09 -0.09)">
     <use xlink:href="#SimHei-54"/>
     <use x="50.0" xlink:href="#SimHei-32"/>
     <use x="100.0" xlink:href="#SimHei-30"/>
    </g>
   </g>
   <g id="text_17">
    <!-- T16 -->
    <g style="fill:#90ee90;" transform="translate(288.36 245.088)scale(0.09 -0.09)">
     <use xlink:href="#SimHei-54"/>
     <use x="50.0" xlink:href="#SimHei-31"/>
     <use x="100.0" xlink:href="#SimHei-36"/>
    </g>
   </g>
   <g id="text_18">
    <!-- T10 -->
    <g style="fill:#f0e68c;" transform="translate(288.36 154.0224)scale(0.09 -0.09)">
     <use xlink:href="#SimHei-54"/>
     <use x="50.0" xlink:href="#SimHei-31"/>
     <use x="100.0" xlink:href="#SimHei-30"/>
    </g>
   </g>
   <g id="text_19">
    <!-- T12 -->
    <g style="fill:#cd853f;" transform="translate(288.36 194.46624)scale(0.09 -0.09)">
     <use xlink:href="#SimHei-54"/>
     <use x="50.0" xlink:href="#SimHei-31"/>
     <use x="100.0" xlink:href="#SimHei-32"/>
    </g>
   </g>
   <g id="text_20">
    <!-- pressure_eaton_cug1 -->
    <defs>
     <path d="M 46.484375 39.0625 
Q 43.75 39.84375 41.203125 40.03125 
Q 38.671875 40.234375 35.9375 39.453125 
Q 37.109375 38.28125 37.890625 36.515625 
Q 38.671875 34.765625 38.671875 31.25 
Q 38.671875 24.609375 34.171875 20.3125 
Q 29.6875 16.015625 23.046875 16.015625 
Q 21.484375 16.015625 18.9375 16.59375 
Q 16.40625 17.1875 14.84375 17.96875 
Q 13.671875 17.1875 13.28125 16.40625 
Q 12.890625 15.625 12.890625 14.453125 
Q 12.890625 12.5 15.625 11.515625 
Q 18.359375 10.546875 25.390625 10.546875 
Q 36.71875 10.546875 40.8125 7.421875 
Q 44.921875 4.296875 44.921875 -0.390625 
Q 44.921875 -6.640625 38.859375 -9.5625 
Q 32.8125 -12.5 24.609375 -12.5 
Q 14.0625 -12.5 8.984375 -9.765625 
Q 3.90625 -7.03125 3.90625 -2.34375 
Q 3.90625 0 5.859375 2.34375 
Q 7.8125 4.6875 10.9375 6.25 
Q 8.59375 7.421875 7.21875 9.171875 
Q 5.859375 10.9375 5.859375 13.671875 
Q 5.859375 16.015625 7.609375 17.765625 
Q 9.375 19.53125 11.71875 20.703125 
Q 9.765625 22.65625 8.59375 25.390625 
Q 7.421875 28.125 7.421875 31.25 
Q 7.421875 37.890625 11.90625 42.1875 
Q 16.40625 46.484375 23.046875 46.484375 
Q 26.5625 46.484375 29.09375 45.5 
Q 31.640625 44.53125 33.59375 42.578125 
Q 36.71875 44.921875 39.84375 45.890625 
Q 42.96875 46.875 46.484375 46.484375 
z
M 30.859375 31.25 
Q 30.859375 35.15625 28.90625 37.5 
Q 26.953125 39.84375 23.046875 39.84375 
Q 19.140625 39.84375 17.1875 37.5 
Q 15.234375 35.15625 15.234375 31.25 
Q 15.234375 27.34375 17.1875 25 
Q 19.140625 22.65625 23.046875 22.65625 
Q 26.953125 22.65625 28.90625 25 
Q 30.859375 27.34375 30.859375 31.25 
M 37.5 -1.171875 
Q 37.5 0.390625 35.734375 1.953125 
Q 33.984375 3.515625 26.953125 3.515625 
Q 25.390625 3.515625 22.65625 3.703125 
Q 19.921875 3.90625 16.40625 4.296875 
Q 13.28125 3.125 12.109375 1.5625 
Q 10.9375 0 10.9375 -1.5625 
Q 10.9375 -3.90625 14.0625 -5.46875 
Q 17.1875 -7.03125 25 -7.03125 
Q 31.640625 -7.03125 34.5625 -5.265625 
Q 37.5 -3.515625 37.5 -1.171875 
" id="SimHei-67"/>
     <path d="M 44.53125 19.53125 
Q 44.53125 11.328125 38.859375 6.25 
Q 33.203125 1.171875 24.609375 1.171875 
Q 16.015625 1.171875 9.765625 7.21875 
Q 3.515625 13.28125 3.515625 23.828125 
Q 3.515625 34.375 9.765625 40.421875 
Q 16.015625 46.484375 24.609375 46.484375 
Q 33.203125 46.484375 38.28125 41.984375 
Q 43.359375 37.5 43.359375 31.25 
L 34.765625 31.25 
Q 34.375 35.9375 31.4375 37.6875 
Q 28.515625 39.453125 24.609375 39.453125 
Q 19.921875 39.453125 16.015625 35.734375 
Q 12.109375 32.03125 12.109375 23.828125 
Q 12.109375 15.625 16.015625 11.90625 
Q 19.921875 8.203125 24.609375 8.203125 
Q 29.6875 8.203125 32.8125 10.9375 
Q 35.9375 13.671875 35.9375 19.53125 
z
" id="SimHei-63"/>
    </defs>
    <g style="fill:#262626;" transform="translate(175.8 52.6)scale(0.096 -0.096)">
     <use xlink:href="#SimHei-70"/>
     <use x="50.0" xlink:href="#SimHei-72"/>
     <use x="100.0" xlink:href="#SimHei-65"/>
     <use x="150.0" xlink:href="#SimHei-73"/>
     <use x="200.0" xlink:href="#SimHei-73"/>
     <use x="250.0" xlink:href="#SimHei-75"/>
     <use x="300.0" xlink:href="#SimHei-72"/>
     <use x="350.0" xlink:href="#SimHei-65"/>
     <use x="400.0" xlink:href="#SimHei-5f"/>
     <use x="450.0" xlink:href="#SimHei-65"/>
     <use x="500.0" xlink:href="#SimHei-61"/>
     <use x="550.0" xlink:href="#SimHei-74"/>
     <use x="600.0" xlink:href="#SimHei-6f"/>
     <use x="650.0" xlink:href="#SimHei-6e"/>
     <use x="700.0" xlink:href="#SimHei-5f"/>
     <use x="750.0" xlink:href="#SimHei-63"/>
     <use x="800.0" xlink:href="#SimHei-75"/>
     <use x="850.0" xlink:href="#SimHei-67"/>
     <use x="900.0" xlink:href="#SimHei-31"/>
    </g>
   </g>
   <g id="legend_1">
    <g id="line2d_45">
     <path d="M 247.4 67.6 
L 263.4 67.6 
" style="fill:none;stroke:#008000;stroke-linecap:round;stroke-width:0.5;"/>
    </g>
    <g id="line2d_46"/>
    <g id="text_21">
     <!-- Lithostatic -->
     <defs>
      <path d="M 45.3125 1.953125 
L 4.6875 1.953125 
L 4.6875 68.75 
L 13.671875 68.75 
L 13.671875 9.375 
L 45.3125 9.375 
z
" id="SimHei-4c"/>
      <path d="M 28.125 58.203125 
L 20.3125 58.203125 
L 20.3125 68.359375 
L 28.125 68.359375 
z
M 28.125 1.953125 
L 20.3125 1.953125 
L 20.3125 45.703125 
L 28.125 45.703125 
z
" id="SimHei-69"/>
     </defs>
     <g style="fill:#262626;" transform="translate(269.8 70.4)scale(0.08 -0.08)">
      <use xlink:href="#SimHei-4c"/>
      <use x="50.0" xlink:href="#SimHei-69"/>
      <use x="100.0" xlink:href="#SimHei-74"/>
      <use x="150.0" xlink:href="#SimHei-68"/>
      <use x="200.0" xlink:href="#SimHei-6f"/>
      <use x="250.0" xlink:href="#SimHei-73"/>
      <use x="300.0" xlink:href="#SimHei-74"/>
      <use x="350.0" xlink:href="#SimHei-61"/>
      <use x="400.0" xlink:href="#SimHei-74"/>
      <use x="450.0" xlink:href="#SimHei-69"/>
      <use x="500.0" xlink:href="#SimHei-63"/>
     </g>
    </g>
    <g id="line2d_47">
     <path d="M 247.4 78.2 
L 263.4 78.2 
" style="fill:none;stroke:#008000;stroke-dasharray:6.000000,6.000000;stroke-dashoffset:0.0;stroke-width:1.4;"/>
    </g>
    <g id="line2d_48"/>
    <g id="text_22">
     <!-- Hydrostatic -->
     <defs>
      <path d="M 42.96875 1.953125 
L 35.15625 1.953125 
L 35.15625 7.8125 
Q 32.8125 4.296875 29.6875 2.734375 
Q 26.5625 1.171875 22.265625 1.171875 
Q 14.453125 1.171875 8.984375 6.828125 
Q 3.515625 12.5 3.515625 23.828125 
Q 3.515625 35.15625 8.984375 41.015625 
Q 14.453125 46.875 22.265625 46.875 
Q 26.5625 46.875 29.6875 45.109375 
Q 32.8125 43.359375 35.15625 39.84375 
L 35.15625 68.75 
L 42.96875 68.75 
z
M 35.15625 23.828125 
Q 35.15625 31.25 31.828125 35.546875 
Q 28.515625 39.84375 23.828125 39.84375 
Q 17.96875 39.84375 15.03125 35.546875 
Q 12.109375 31.25 12.109375 23.828125 
Q 12.109375 16.40625 15.03125 12.296875 
Q 17.96875 8.203125 23.828125 8.203125 
Q 28.515625 8.203125 31.828125 12.296875 
Q 35.15625 16.40625 35.15625 23.828125 
" id="SimHei-64"/>
      <path d="M 44.53125 1.953125 
L 35.546875 1.953125 
L 35.546875 33.203125 
L 13.28125 33.203125 
L 13.28125 1.953125 
L 4.296875 1.953125 
L 4.296875 68.75 
L 13.28125 68.75 
L 13.28125 40.625 
L 35.546875 40.625 
L 35.546875 68.75 
L 44.53125 68.75 
z
" id="SimHei-48"/>
      <path d="M 45.3125 45.703125 
L 27.34375 -1.5625 
Q 25.78125 -7.03125 22.65625 -9.765625 
Q 19.53125 -12.5 14.84375 -12.5 
Q 12.890625 -12.5 11.125 -12.296875 
Q 9.375 -12.109375 7.8125 -11.328125 
L 7.8125 -3.515625 
Q 9.375 -4.296875 10.9375 -4.6875 
Q 12.5 -5.078125 13.671875 -5.078125 
Q 16.796875 -5.078125 17.96875 -4.09375 
Q 19.140625 -3.125 20.3125 0.390625 
L 3.125 45.703125 
L 11.71875 45.703125 
L 24.21875 11.328125 
L 24.609375 11.328125 
L 36.71875 45.703125 
z
" id="SimHei-79"/>
     </defs>
     <g style="fill:#262626;" transform="translate(269.8 81.0)scale(0.08 -0.08)">
      <use xlink:href="#SimHei-48"/>
      <use x="50.0" xlink:href="#SimHei-79"/>
      <use x="100.0" xlink:href="#SimHei-64"/>
      <use x="150.0" xlink:href="#SimHei-72"/>
      <use x="200.0" xlink:href="#SimHei-6f"/>
      <use x="250.0" xlink:href="#SimHei-73"/>
      <use x="300.0" xlink:href="#SimHei-74"/>
      <use x="350.0" xlink:href="#SimHei-61"/>
      <use x="400.0" xlink:href="#SimHei-74"/>
      <use x="450.0" xlink:href="#SimHei-69"/>
      <use x="500.0" xlink:href="#SimHei-63"/>
     </g>
    </g>
    <g id="line2d_49">
     <path d="M 247.4 88.8 
L 263.4 88.8 
" style="fill:none;stroke:#0000ff;stroke-linecap:round;stroke-width:0.5;"/>
    </g>
    <g id="line2d_50"/>
    <g id="text_23">
     <!-- Pressure_Eaton -->
     <g style="fill:#262626;" transform="translate(269.8 91.6)scale(0.08 -0.08)">
      <use xlink:href="#SimHei-50"/>
      <use x="50.0" xlink:href="#SimHei-72"/>
      <use x="100.0" xlink:href="#SimHei-65"/>
      <use x="150.0" xlink:href="#SimHei-73"/>
      <use x="200.0" xlink:href="#SimHei-73"/>
      <use x="250.0" xlink:href="#SimHei-75"/>
      <use x="300.0" xlink:href="#SimHei-72"/>
      <use x="350.0" xlink:href="#SimHei-65"/>
      <use x="400.0" xlink:href="#SimHei-5f"/>
      <use x="450.0" xlink:href="#SimHei-45"/>
      <use x="500.0" xlink:href="#SimHei-61"/>
      <use x="550.0" xlink:href="#SimHei-74"/>
      <use x="600.0" xlink:href="#SimHei-6f"/>
      <use x="650.0" xlink:href="#SimHei-6e"/>
     </g>
    </g>
   </g>
  </g>
 </g>
 <defs>
  <clipPath id="p2901442788">
   <rect height="446.4" width="223.2" x="109.8" y="57.6"/>
  </clipPath>
 </defs>
</svg>
